# xmcd
#
# Track frame offsets:
#	150
#	14696
#	38219
#	69166
#	87798
#	105621
#	122327
#	154967
#	173012
#	187276
#	201926
#	218036
#	241023
#	254747
#
# Disc length: 3664 seconds
#
# Revision: 2
# Processed by: cddbd v1.4PL0 Copyright (c) Steve Scherf et al.
# Submitted via: EZCDDA 4.3.2
#
DISCID=bf0e4e0e
DTITLE=Various Artist - Lucerne Blues Festival 2001 Part I Promo
DYEAR=1900
DGENRE=
TTITLE0=James Nixon - One More Chance
TTITLE1=Big George Jackson Blues Band - Big Shot
TTITLE2=Harry "Big Daddy" Hypolite - Louisiana Country Boy
TTITLE3=Darell Nulisch - Getaway Place
TTITLE4=Calvin Jackson - It's Gonna Rain
TTITLE5=Lazy Lester - Blue Lester
TTITLE6=Jimmy D. Lane - Four O'Clock In The Morning
TTITLE7=Eddie C. Campbell - Hopes And Dreams
TTITLE8=John Dee Holeman - Stranger Blues
TTITLE9=Otis Clay - Working Hard
TTITLE10=Darrell Nulish/Johnny Moeller - Slingning' Hash
TTITLE11=Roy Ganes - It's Midnight Baby
TTITLE12=Jerry "Boogie" McCain - If You Love Me
TTITLE13=Roy Ganes/Jonny Viau - Soul Serenade
EXTD=
EXTT0=
EXTT1=
EXTT2=
EXTT3=
EXTT4=
EXTT5=
EXTT6=
EXTT7=
EXTT8=
EXTT9=
EXTT10=
EXTT11=
EXTT12=
EXTT13=
PLAYORDER=
